<?xml version="1.0" encoding="UTF-8" standalone="no"?>
<!-- Created with Inkscape (http://www.inkscape.org/) -->

<svg
   width="800mm"
   height="300mm"
   viewBox="0 0 800 300"
   version="1.1"
   id="svg5"
   xml:space="preserve"
   inkscape:version="1.2.2 (732a01da63, 2022-12-09)"
   sodipodi:docname="drawing-1.svg"
   xmlns:inkscape="http://www.inkscape.org/namespaces/inkscape"
   xmlns:sodipodi="http://sodipodi.sourceforge.net/DTD/sodipodi-0.dtd"
   xmlns:xlink="http://www.w3.org/1999/xlink"
   xmlns="http://www.w3.org/2000/svg"
   xmlns:svg="http://www.w3.org/2000/svg"><sodipodi:namedview
     id="namedview7"
     pagecolor="#ffffff"
     bordercolor="#000000"
     borderopacity="0.25"
     inkscape:showpageshadow="2"
     inkscape:pageopacity="0.0"
     inkscape:pagecheckerboard="0"
     inkscape:deskcolor="#d1d1d1"
     inkscape:document-units="mm"
     showgrid="false"
     inkscape:zoom="0.41903385"
     inkscape:cx="1511.811"
     inkscape:cy="566.77998"
     inkscape:window-width="1920"
     inkscape:window-height="1001"
     inkscape:window-x="-9"
     inkscape:window-y="-9"
     inkscape:window-maximized="1"
     inkscape:current-layer="layer1" /><defs
     id="defs2"><linearGradient
       inkscape:collect="always"
       id="linearGradient4140"><stop
         style="stop-color:#2a85f7;stop-opacity:1;"
         offset="0"
         id="stop4136" /><stop
         style="stop-color:#2a85f7;stop-opacity:0;"
         offset="1"
         id="stop4138" /></linearGradient><linearGradient
       inkscape:collect="always"
       xlink:href="#linearGradient4140"
       id="linearGradient4142"
       x1="208.33672"
       y1="-50.737846"
       x2="51.914173"
       y2="121.00642"
       gradientUnits="userSpaceOnUse" /><linearGradient
       inkscape:collect="always"
       xlink:href="#linearGradient4140"
       id="linearGradient5765"
       gradientUnits="userSpaceOnUse"
       x1="-95.226433"
       y1="134.89751"
       x2="-259.02298"
       y2="213.8241"
       gradientTransform="matrix(0.51376117,0,0,1,695.11673,-1.6694106)" /><linearGradient
       inkscape:collect="always"
       xlink:href="#linearGradient4140"
       id="linearGradient5838"
       gradientUnits="userSpaceOnUse"
       gradientTransform="matrix(0.51376117,0,0,1,654.96469,-1.038001)"
       x1="347.21378"
       y1="-98.72522"
       x2="-180.36694"
       y2="164.5739" /></defs><g
     inkscape:label="Layer 1"
     inkscape:groupmode="layer"
     id="layer1"><rect
       style="fill:#2b6ff4;fill-opacity:1;stroke:#ffffff;stroke-width:0;stroke-linecap:round;stroke-linejoin:round"
       id="rect234"
       width="800"
       height="300"
       x="1.5075634e-06"
       y="1.5075634e-06"
       rx="0"
       ry="0" /><path
       id="rect4061-9-0"
       style="fill:url(#linearGradient5838);fill-opacity:1;stroke:#ffffff;stroke-width:0;stroke-linecap:round;stroke-linejoin:round"
       d="M 688.66648,0.47528399 754.94953,-1.11254 497.72775,247.36352 440.31488,225.08232 Z"
       sodipodi:nodetypes="ccccc" /><path
       sodipodi:type="star"
       style="fill:#2a85f7;fill-opacity:1;stroke:#ffffff;stroke-width:0;stroke-linecap:round;stroke-linejoin:round"
       id="path4007"
       inkscape:flatsided="true"
       sodipodi:sides="3"
       sodipodi:cx="89.660614"
       sodipodi:cy="25.887924"
       sodipodi:r1="74.088165"
       sodipodi:r2="34.815132"
       sodipodi:arg1="2.0878282"
       sodipodi:arg2="3.1350258"
       inkscape:rounded="0"
       inkscape:randomized="0"
       d="M 53.038674,90.292037 52.195986,-38.029662 163.74718,25.401398 Z"
       inkscape:transform-center-x="1.28986"
       inkscape:transform-center-y="1.2493147"
       transform="matrix(-0.22913269,-0.21970012,-0.38529978,0.39108848,47.306985,26.340427)" /><path
       id="rect4061"
       style="fill:url(#linearGradient4142);stroke:#ffffff;stroke-width:0;stroke-linecap:round;stroke-linejoin:round;fill-opacity:1"
       d="M 114.75819,1.5132852 194.61347,-0.07453891 -0.02950116,223.14501 0.05940269,136.4597 Z"
       sodipodi:nodetypes="ccccc" /><path
       id="rect4061-9"
       style="fill:url(#linearGradient5765);fill-opacity:1;stroke:#ffffff;stroke-width:0;stroke-linecap:round;stroke-linejoin:round"
       d="M 754.07503,-0.15612573 795.10157,0.78170154 545.45674,250.5206 500.67213,244.02472 Z"
       sodipodi:nodetypes="ccccc" /><path
       id="path4922"
       style="fill:#2a85f7;stroke:#ffffff;stroke-width:0;stroke-linecap:round;stroke-linejoin:round"
       d="m 147.50755,301.31082 c 2.98436,-20.40547 34.38728,-35.77985 57.5787,-36.11203 23.19142,-0.33219 43.14687,15.1098 46.87225,35.41916"
       sodipodi:nodetypes="csc" /><path
       id="rect4061-7"
       style="fill:#2a85f7;fill-opacity:1;stroke:#ffffff;stroke-width:0;stroke-linecap:round;stroke-linejoin:round"
       d="M 681.42167,299.84017 598.10576,300 800,100 l -0.0913,77.6682 z"
       sodipodi:nodetypes="ccccc" /><g
       transform="matrix(0.04834481,0,0,-0.04548881,9.853445,300.27903)"
       fill="#000000"
       stroke="none"
       id="g6982"
       style="fill:#2a85f7;fill-opacity:1"><path
         d="M 1662,975 C 1448,928 1262,752 1004,353 902,195 852,126 781,48 l -44,-49 98,3 c 62,2 100,7 102,14 2,7 -8,15 -22,18 -38,10 -40,30 -8,82 55,91 99,118 123,74 6,-10 16,-17 23,-14 8,3 26,0 41,-5 24,-10 31,-7 73,32 25,23 61,66 80,95 34,52 34,52 76,46 23,-3 48,-7 55,-10 16,-5 35,13 98,91 59,74 55,70 132,128 34,27 62,50 62,53 0,11 -49,-23 -105,-73 -56,-50 -95,-67 -95,-42 0,6 -12,9 -27,7 -22,-2 -29,1 -31,18 -2,17 17,39 85,94 48,40 104,80 123,88 19,8 49,24 65,36 25,18 46,21 132,23 l 102,2 3,-26 c 2,-16 10,-27 21,-29 25,-3 21,20 -9,55 -29,35 -50,40 -57,14 -3,-14 -6,-12 -15,9 -14,34 -77,56 -110,39 -11,-6 -38,-11 -58,-11 -39,0 -153,-61 -189,-100 -23,-25 -46,-25 -73,0 -25,24 -25,21 -13,53 10,27 171,124 252,152 53,19 120,19 166,0 19,-8 46,-15 60,-15 57,0 94,-27 180,-132 26,-32 48,-56 49,-55 1,1 -4,26 -12,56 -44,170 -229,254 -452,206 z"
         id="path6960"
         style="fill:#2a85f7;fill-opacity:1" /><path
         d="m 1820,700 c 19,-13 30,-13 30,0 0,6 -10,10 -22,10 -19,0 -20,-2 -8,-10 z"
         id="path6962"
         style="fill:#2a85f7;fill-opacity:1" /><path
         d="m 1690,689 c 0,-5 5,-7 10,-4 6,3 10,8 10,11 0,2 -4,4 -10,4 -5,0 -10,-5 -10,-11 z"
         id="path6964"
         style="fill:#2a85f7;fill-opacity:1" /><path
         d="m 1634,665 c -10,-8 -14,-14 -9,-15 15,0 40,18 34,24 -3,3 -14,-1 -25,-9 z"
         id="path6966"
         style="fill:#2a85f7;fill-opacity:1" /><path
         d="m 1812,636 c 7,-8 16,-12 21,-9 11,7 -2,23 -19,23 -12,0 -12,-2 -2,-14 z"
         id="path6968"
         style="fill:#2a85f7;fill-opacity:1" /><path
         d="M 43,329 C 11,321 0,314 0,299 c 0,-16 7,-19 43,-19 23,1 53,7 67,15 14,8 39,14 55,15 34,0 150,-35 180,-54 11,-7 31,-16 45,-19 14,-3 33,-19 43,-36 21,-36 21,-41 2,-41 -9,0 -29,-7 -45,-15 -27,-14 -30,-20 -30,-65 0,-58 14,-69 87,-73 l 48,-2 3,38 c 2,21 -6,69 -18,107 -17,55 -30,77 -66,110 -25,23 -62,48 -82,57 -45,19 -229,27 -289,12 z"
         id="path6970"
         style="fill:#2a85f7;fill-opacity:1" /><path
         d="m 1346,282 c -20,-40 -17,-50 8,-23 10,11 16,28 14,38 -3,14 -8,11 -22,-15 z"
         id="path6972"
         style="fill:#2a85f7;fill-opacity:1" /><path
         d="M 49,144 C 42,136 28,131 18,133 2,138 0,131 0,79 0,15 1,14 61,27 l 34,7 -30,6 c -21,4 -30,11 -30,25 0,12 12,26 30,35 35,18 46,60 16,60 -10,0 -24,-7 -32,-16 z"
         id="path6974"
         style="fill:#2a85f7;fill-opacity:1" /><path
         d="m 220,153 c 30,-11 50,-37 50,-64 0,-26 22,-59 40,-59 13,0 22,34 11,38 -6,2 -11,14 -11,27 0,30 -44,65 -79,64 -15,0 -20,-3 -11,-6 z"
         id="path6976"
         style="fill:#2a85f7;fill-opacity:1" /><path
         d="m 147,64 c -3,-4 1,-20 9,-36 13,-24 20,-29 47,-26 25,2 33,8 35,27 2,13 -2,28 -10,32 -15,10 -72,12 -81,3 z"
         id="path6978"
         style="fill:#2a85f7;fill-opacity:1" /><path
         d="m 1042,58 c -16,-16 -15,-28 3,-28 8,0 15,9 15,20 0,23 -2,24 -18,8 z"
         id="path6980"
         style="fill:#2a85f7;fill-opacity:1" /></g></g></svg>
